<?xml version="1.0" encoding="UTF-8" standalone="no"?>

<svg width="20mm"
     height="20mm"
     viewBox="0 0 20 20"
     version="1.1"
     xmlns="http://www.w3.org/2000/svg"
>
  <g transform="matrix(0.70580178,0,0,0.69424702,3.0000007,2.999987)">
    <path style="fill:#ffffff" d="M 6.0799812,16.1216 Q 7.3454978,13.232921 8.7898374,10.605598 10.247933,7.9645203 11.788561,5.7361107 13.604303,3.1225438 14.649729,1.9670722 15.323754,1.224269 15.915246,0.74282245 16.259136,0.46771016 17.001939,0.33015401 18.803925,1.9250438e-5 19.519217,1.9250438e-5 q 0.316379,0 0.316379,0.220089839562 0,0.20633422 -0.316379,0.49520213 -2.751123,2.44849948 -5.777358,7.00160798 -3.01248,4.5531088 -5.0895778,9.6701968 -0.78407,1.912031 -1.1004492,2.352211 -0.3026235,0.426424 -1.925786,0.426424 -1.0591824,0 -1.3342947,-0.206335 Q 4.0303946,19.753082 3.3288583,18.652633 2.1183642,16.823136 0.72904706,15.351285 -5.2992254e-7,14.580971 -5.2992254e-7,14.168303 q 0,-0.577736 0.81158127992254,-1.127961 0.81158125,-0.56398 1.33429465,-0.56398 0.7290476,0 1.7469631,0.825337 1.0316711,0.811581 2.1871427,2.819901 z" />
  </g>
</svg>
