<?xml version="1.0" encoding="UTF-8" standalone="no"?>
<svg
   version="1.1"
   width="1850pt"
   height="1950pt"
   viewBox="0 0 1850 1950"
   xmlns="http://www.w3.org/2000/svg">
  <g transform="matrix(0.1,0,0,-0.1,8.9208869,1980.5827)" style="fill:#4287c2;stroke:none;">
    <path d="m 406,19501 c -20,-32 319,-149 884,-306 597,-166 894,-309 832,-401 -24,-36 -114,-44 -217,-19 -72,17 -125,19 -125,4 0,-16 20,-49 62,-103 112,-141 102,-216 -25,-187 -78,17 -158,58 -339,174 -199,127 -198,126 -172,96 78,-90 308,-375 347,-430 127,-179 141,-279 40,-279 -64,0 -140,48 -248,155 -153,154 -260,217 -393,234 -119,15 -209,77 -311,211 -107,142 -184,319 -203,464 -5,45 -12,96 -15,115 -7,49 -55,95 -91,87 -43,-11 -75,-39 -99,-86 -38,-74 -35,-107 71,-780 53,-333 78,-542 105,-880 68,-819 97,-1686 88,-2625 -7,-705 -18,-919 -67,-1260 -55,-382 -83,-654 -71,-687 7,-20 20,1 89,142 89,181 268,596 412,955 277,692 438,1047 675,1490 172,322 185,457 57,584 -34,34 -119,94 -211,151 -303,187 -351,268 -351,600 0,221 33,361 102,435 49,54 91,69 178,63 74,-6 157,-39 265,-107 135,-86 315,-163 488,-212 177,-49 208,-71 242,-179 16,-48 19,-109 23,-457 2,-222 7,-403 11,-403 33,-1 575,-52 636,-60 126,-17 364,-66 432,-89 83,-28 124,-27 161,4 62,52 138,250 257,674 42,151 79,280 82,286 2,7 -130,138 -294,292 -364,341 -436,419 -512,554 -39,70 -40,110 -3,139 46,37 221,116 337,153 177,56 214,62 410,62 152,-1 194,-4 269,-23 344,-86 601,-304 738,-625 58,-138 87,-152 187,-96 222,125 1041,846 1562,1375 161,164 208,219 196,230 -5,5 -213,-66 -532,-181 -375,-136 -643,-196 -995,-225 -364,-29 -1051,-39 -1475,-20 -498,22 -704,68 -1230,275 -653,258 -988,385 -1210,461 -401,137 -1028,289 -1049,255 z" />
    <path d="m 9604,19420 c -512,-24 -770,-83 -1106,-251 -144,-72 -203,-119 -149,-119 11,0 73,16 138,36 166,52 274,72 434,84 395,30 1023,-72 1674,-271 345,-106 521,-181 574,-246 47,-57 53,-92 58,-320 3,-117 6,-213 6,-213 1,0 178,16 392,35 215,19 464,39 555,45 91,6 233,15 315,20 1684,109 2352,132 2461,86 24,-10 46,-28 53,-43 12,-26 6,-82 -12,-118 -55,-111 -292,-288 -622,-463 -402,-213 -547,-330 -641,-517 -66,-132 -84,-231 -91,-491 -7,-248 -1,-277 55,-301 46,-19 93,-14 357,37 275,53 405,70 545,70 218,0 277,-42 313,-224 29,-141 86,-221 144,-200 42,14 64,69 73,182 13,158 65,344 178,639 183,474 385,853 481,899 32,15 35,15 60,-3 60,-45 75,-174 76,-668 0,-475 -14,-634 -81,-927 -33,-145 -74,-261 -145,-403 -85,-174 -170,-286 -350,-465 -175,-174 -201,-206 -202,-254 -2,-71 63,-122 266,-210 203,-87 360,-199 542,-387 330,-340 562,-751 775,-1374 130,-381 231,-614 320,-745 46,-66 76,-95 155,-146 179,-115 405,-412 541,-714 104,-229 148,-396 244,-928 12,-68 24,-122 25,-120 5,5 -23,600 -35,768 -26,350 -82,581 -185,766 -19,34 -65,108 -103,166 -153,231 -266,449 -365,698 -255,645 -387,1397 -428,2430 -13,328 -7,1201 10,1415 50,631 143,965 458,1635 193,409 252,544 293,669 45,136 58,205 40,226 -37,44 -350,20 -785,-60 -761,-142 -1588,-238 -2363,-276 -271,-13 -1001,-7 -1197,10 -547,48 -985,136 -1303,262 -403,160 -1182,271 -1992,283 -157,2 -362,1 -456,-4 z" />
    <path d="m 8760,17683 c -645,-23 -1119,-125 -1636,-353 -720,-317 -1311,-737 -1990,-1415 -621,-620 -1164,-1305 -1662,-2096 -255,-405 -524,-918 -677,-1288 -253,-610 -536,-1484 -561,-1727 -6,-61 -6,-64 18,-73 61,-23 350,-49 842,-76 154,-8 281,-16 282,-18 8,-8 34,-518 34,-661 0,-188 -10,-257 -51,-343 -83,-174 -275,-249 -913,-358 -142,-24 -260,-46 -262,-48 -5,-5 22,-456 37,-602 68,-711 376,-1642 874,-2650 377,-761 779,-1336 1318,-1884 427,-433 831,-750 1347,-1058 955,-568 1567,-743 2600,-743 1003,0 1940,148 2850,450 1216,403 2248,1054 2925,1844 771,900 1391,2341 1645,3827 29,166 111,752 106,756 -2,2 -110,21 -240,43 -130,21 -275,51 -324,65 -259,79 -418,231 -473,455 -21,85 -18,329 5,405 61,198 160,312 351,406 137,66 243,92 569,139 154,22 281,41 283,43 7,7 -77,726 -97,832 -46,244 -133,525 -246,800 -79,192 -282,595 -400,795 -377,641 -915,1334 -1515,1955 -398,412 -488,515 -899,1038 -129,165 -270,336 -315,382 -78,81 -88,88 -350,232 -437,239 -595,313 -1045,493 -790,315 -1116,401 -1635,430 -161,9 -596,11 -795,3 z m 1120,-626 c 138,-21 263,-49 380,-87 197,-64 668,-279 920,-420 154,-86 397,-250 515,-347 241,-198 484,-477 711,-818 214,-320 423,-771 582,-1255 379,-1158 590,-2678 621,-4495 39,-2235 -210,-3495 -912,-4610 -432,-686 -1146,-1382 -1812,-1765 -330,-191 -630,-294 -1060,-365 -675,-111 -1332,-113 -1645,-3 -429,151 -1135,639 -1625,1124 -169,167 -247,259 -421,490 -899,1195 -1474,2715 -1628,4304 -37,381 -41,481 -41,1015 0,550 6,685 46,1085 133,1330 510,2718 1105,4065 225,509 509,909 883,1243 445,396 1070,695 1666,797 309,52 517,64 1125,60 378,-2 508,-6 590,-18 z" />
    <path d="m 7942,15910 c 242,-712 281,-897 281,-1315 0,-237 -16,-403 -57,-606 -76,-370 -160,-371 -306,-5 -60,153 -80,193 -115,235 -46,54 -113,35 -153,-44 -77,-153 75,-653 355,-1168 142,-262 176,-378 111,-385 -46,-5 -118,37 -258,153 -98,81 -133,113 -494,449 -546,509 -764,671 -921,684 -58,4 -72,1 -129,-27 -77,-38 -176,-138 -223,-227 -73,-137 -81,-292 -23,-411 25,-51 47,-77 104,-124 72,-59 96,-91 96,-130 0,-28 -65,-95 -210,-216 -325,-271 -450,-514 -454,-878 -1,-112 2,-136 19,-169 29,-57 47,-65 93,-41 39,21 92,94 187,261 60,105 170,225 280,307 77,57 328,187 466,241 160,62 256,70 385,32 88,-26 225,-81 324,-131 341,-172 796,-614 901,-876 12,-30 25,-85 29,-123 10,-88 33,-116 79,-96 49,20 146,132 210,243 32,56 81,139 107,185 109,185 336,458 464,557 78,60 105,72 126,54 43,-36 -10,-162 -341,-805 -94,-184 -198,-460 -250,-664 -29,-115 -67,-393 -63,-458 l 3,-47 26,50 c 15,28 86,199 159,380 150,375 232,558 326,730 367,668 769,886 1589,862 233,-7 308,-21 420,-76 99,-50 174,-109 367,-292 200,-191 314,-281 427,-337 81,-40 104,-47 165,-50 58,-2 77,1 104,18 69,43 97,167 68,309 -72,355 -518,1278 -716,1481 -60,62 -71,63 -227,11 -279,-91 -754,-329 -963,-481 -155,-112 -240,-127 -240,-42 0,90 107,240 304,425 158,149 241,255 305,386 41,85 45,102 49,180 3,75 0,92 -20,131 -33,64 -82,90 -175,90 -131,0 -246,-54 -488,-230 -145,-105 -323,-220 -341,-220 -20,0 -23,37 -7,112 15,71 46,164 144,423 50,132 53,145 53,235 1,94 0,96 -43,177 -55,102 -121,190 -207,277 -155,156 -325,253 -410,232 -45,-12 -69,-100 -154,-556 -106,-571 -136,-709 -191,-876 -36,-110 -50,-134 -72,-116 -36,30 -114,308 -161,577 -81,455 -178,968 -191,1006 -22,62 -93,192 -158,290 -48,72 -309,395 -354,439 -14,13 -15,13 -11,0 z" />
    <path d="m 9706,11538 c -39,-138 -78,-488 -106,-943 -63,-1033 -345,-2155 -825,-3280 -258,-604 -526,-1110 -900,-1700 -195,-308 -259,-419 -366,-640 -98,-203 -129,-285 -136,-365 -14,-152 50,-145 239,26 112,101 488,492 631,654 677,770 1083,1527 1307,2435 242,980 397,2786 297,3455 -37,240 -85,410 -117,410 -5,0 -16,-24 -24,-52 z" />
    <path d="m 6700,11184 c -14,-36 -13,-142 6,-444 14,-218 15,-292 6,-415 -11,-147 -28,-231 -52,-260 -25,-30 -85,-18 -196,40 -116,60 -142,77 -355,241 -149,114 -335,244 -350,244 -19,0 -7,-29 39,-97 68,-102 205,-271 319,-394 209,-225 555,-783 570,-921 5,-42 3,-48 -23,-64 -23,-16 -45,-18 -139,-17 -94,2 -439,36 -726,72 -41,6 -75,8 -77,7 -1,-2 89,-69 200,-149 284,-203 310,-232 644,-725 107,-158 225,-324 262,-370 304,-376 348,-451 384,-667 18,-109 18,-777 -1,-970 -39,-417 -112,-721 -235,-980 -61,-128 -116,-218 -249,-410 l -98,-140 187,190 c 268,273 399,441 419,540 8,37 70,97 134,130 27,13 63,36 81,52 38,32 80,114 80,158 0,81 96,338 282,760 138,310 172,398 198,508 27,114 26,162 -10,250 -68,169 -16,335 92,298 55,-19 66,-14 93,40 92,180 155,774 141,1324 -11,459 -55,809 -146,1160 -55,215 -119,376 -189,479 -31,46 -192,205 -215,212 -39,13 -70,-44 -147,-274 -59,-176 -78,-222 -107,-254 -105,-117 -295,-40 -418,168 -13,23 -48,101 -78,175 -87,220 -189,410 -259,486 -22,24 -44,43 -49,43 -4,0 -13,-12 -18,-26 z" />
    <path d="m 10764,10666 c -9,-23 17,-58 109,-145 45,-42 103,-98 130,-126 267,-276 481,-1049 382,-1375 -22,-69 -79,-130 -123,-130 -63,0 -122,113 -181,349 -50,200 -101,269 -169,230 -52,-29 -109,-183 -138,-374 -8,-49 -18,-178 -24,-285 -15,-284 -36,-523 -61,-700 -10,-70 -63,-317 -75,-350 -3,-9 -40,54 -92,155 -124,243 -181,315 -248,315 -57,0 -98,-59 -133,-192 -24,-87 -40,-197 -156,-1084 -41,-311 -57,-392 -91,-461 -37,-76 -70,-93 -202,-104 -131,-10 -198,-40 -294,-132 -93,-90 -158,-175 -318,-417 -246,-370 -372,-532 -745,-955 -146,-166 -227,-277 -212,-291 20,-21 227,81 477,234 725,444 1786,1268 1815,1409 22,106 113,187 224,200 41,5 52,2 70,-16 57,-57 0,-153 -238,-394 -397,-404 -976,-874 -1641,-1332 -595,-410 -970,-697 -970,-743 0,-41 128,20 370,178 618,402 884,538 1225,625 277,71 501,85 1330,85 h 643 l 5,248 c 4,211 7,258 26,326 50,186 141,271 396,367 226,85 382,187 414,272 51,135 -98,519 -275,707 -43,45 -87,80 -134,104 -78,41 -105,70 -121,129 -15,56 -4,115 38,198 52,104 155,203 336,323 302,200 321,244 228,542 -65,211 -85,315 -79,425 8,142 60,233 256,452 132,146 199,230 273,341 137,204 186,356 113,356 -51,0 -124,-51 -278,-193 -192,-178 -298,-254 -335,-242 -34,10 -113,126 -216,315 -252,464 -630,865 -995,1054 -191,99 -303,135 -316,102 z" />
    <path d="m 840,11684 c 0,-38 44,-161 115,-319 131,-292 150,-391 150,-810 0,-335 -9,-436 -66,-805 C 973,9332 879,8909 694,8205 493,7442 460,7281 453,7012 c -6,-204 4,-337 47,-632 61,-419 172,-862 308,-1231 128,-347 223,-504 277,-459 41,34 -12,406 -115,805 -94,365 -123,575 -124,880 0,413 55,732 298,1715 58,234 125,520 150,635 250,1166 218,1866 -119,2554 -90,184 -141,264 -229,359 -72,77 -106,92 -106,46 z" />
    <path d="m 17070,8715 c -25,-8 -70,-32 -100,-53 -51,-34 -55,-40 -58,-81 -6,-81 77,-211 306,-480 188,-220 292,-363 390,-536 81,-144 95,-197 95,-350 -1,-111 -5,-147 -31,-245 -209,-801 -1209,-1997 -2612,-3123 -379,-304 -790,-604 -1155,-842 -723,-472 -1550,-825 -2310,-986 -215,-45 -303,-68 -311,-80 -24,-40 268,-58 1341,-84 1413,-34 1687,-43 2065,-65 951,-57 1258,-147 1376,-403 14,-32 38,-119 54,-195 43,-204 68,-264 145,-350 86,-95 249,-152 390,-137 101,11 191,33 293,71 218,81 325,161 357,267 23,74 30,247 16,348 -24,167 -113,378 -213,505 -163,207 -247,331 -312,462 -63,124 -194,157 -751,187 -587,32 -906,71 -961,116 -19,16 -17,49 5,107 35,88 105,194 290,441 l 183,243 76,-6 c 43,-4 289,-20 547,-36 259,-16 549,-35 645,-42 242,-16 669,-17 740,0 133,31 178,78 166,177 -7,66 -31,134 -101,289 -71,159 -90,250 -81,396 8,137 22,218 111,615 169,756 223,1145 232,1692 8,439 -14,715 -88,1121 -82,450 -158,668 -281,807 -57,63 -236,202 -305,236 -56,27 -100,31 -153,14 z" />
    <path d="m 1300,6605 c -9,-10 -11,-33 -7,-71 11,-103 111,-281 258,-455 39,-46 84,-111 99,-144 132,-285 92,-975 -91,-1584 -45,-151 -88,-261 -182,-471 -168,-376 -230,-625 -230,-925 -1,-223 40,-410 126,-580 73,-145 262,-425 287,-425 32,0 -32,142 -213,478 l -157,291 194,261 c 219,292 313,438 421,651 185,364 286,688 347,1104 20,139 17,533 -5,675 -71,456 -256,809 -564,1075 -136,117 -247,164 -283,120 z" />
    <path d="m 4925,2595 c -137,-37 -242,-95 -400,-221 -240,-191 -590,-404 -970,-590 -492,-241 -756,-322 -1010,-311 -167,7 -268,43 -451,163 -93,61 -131,80 -140,71 -4,-3 2,-17 12,-30 127,-162 137,-189 79,-216 -42,-20 -337,-27 -532,-12 -184,14 -535,63 -663,91 -270,60 -454,65 -512,12 -58,-51 34,-153 282,-315 443,-287 964,-347 1708,-196 206,41 537,130 731,195 855,287 2022,902 2194,1157 49,72 24,150 -63,195 -36,18 -60,22 -130,21 -47,0 -107,-6 -135,-14 z" />
    <path d="m 5280,1714 c -83,-17 -488,-140 -707,-215 -368,-127 -873,-367 -873,-415 0,-20 68,-18 175,5 257,56 1174,133 1590,135 350,1 484,-26 1010,-198 624,-204 1041,-277 1600,-279 358,-1 628,32 875,109 109,34 260,97 260,108 0,3 -10,11 -22,18 -18,10 -192,14 -788,19 -829,7 -888,10 -1076,65 -49,14 -136,51 -194,81 -329,176 -474,240 -779,343 -155,52 -441,130 -681,187 -141,33 -323,50 -390,37 z" />
  </g>
</svg>
